<svg width="49" height="46" viewBox="0 0 49 46" fill="none" xmlns="http://www.w3.org/2000/svg">
<path opacity="0.85" d="M0 27.3186C0 17.0207 8.34811 8.67255 18.646 8.67255C28.9439 8.67255 37.292 17.0207 37.292 27.3186C37.292 37.6165 28.9439 45.9646 18.646 45.9646C8.34811 45.9646 0 37.6165 0 27.3186Z" fill="#C8E6C9"/>
<path opacity="0.75" d="M10.407 16.9115C10.407 7.57154 17.9786 0 27.3185 0C36.6585 0 44.2301 7.57154 44.2301 16.9115C44.2301 26.2515 36.6585 33.823 27.3185 33.823C17.9786 33.823 10.407 26.2515 10.407 16.9115Z" fill="#81C784"/>
<g opacity="0.8" filter="url(#filter0_i_8_104)">
<path d="M21.6815 27.1017C21.6815 19.5579 27.7969 13.4424 35.3407 13.4424C42.8846 13.4424 49 19.5579 49 27.1017C49 34.6456 42.8846 40.761 35.3407 40.761C27.7969 40.761 21.6815 34.6456 21.6815 27.1017Z" fill="#4CAF50"/>
</g>
<defs>
<filter id="filter0_i_8_104" x="21.6815" y="13.4424" width="27.3186" height="31.3186" filterUnits="userSpaceOnUse" color-interpolation-filters="sRGB">
<feFlood flood-opacity="0" result="BackgroundImageFix"/>
<feBlend mode="normal" in="SourceGraphic" in2="BackgroundImageFix" result="shape"/>
<feColorMatrix in="SourceAlpha" type="matrix" values="0 0 0 0 0 0 0 0 0 0 0 0 0 0 0 0 0 0 127 0" result="hardAlpha"/>
<feOffset dy="4"/>
<feGaussianBlur stdDeviation="2"/>
<feComposite in2="hardAlpha" operator="arithmetic" k2="-1" k3="1"/>
<feColorMatrix type="matrix" values="0 0 0 0 0 0 0 0 0 0 0 0 0 0 0 0 0 0 0.25 0"/>
<feBlend mode="normal" in2="shape" result="effect1_innerShadow_8_104"/>
</filter>
</defs>
</svg>
