<svg width="113" height="106" viewBox="0 0 113 106" fill="none" xmlns="http://www.w3.org/2000/svg">
<path opacity="0.85" d="M0 35C0 26.7157 6.71573 20 15 20H71C79.2843 20 86 26.7157 86 35V91C86 99.2843 79.2843 106 71 106H15C6.71573 106 0 99.2843 0 91V35Z" fill="#C8E6C9"/>
<path opacity="0.75" d="M24 15C24 6.71573 30.7157 0 39 0H87C95.2843 0 102 6.71573 102 15V63C102 71.2843 95.2843 78 87 78H39C30.7157 78 24 71.2843 24 63V15Z" fill="#81C784"/>
<g opacity="0.8" filter="url(#filter0_i_8_64)">
<path d="M50 46C50 37.7157 56.7157 31 65 31H98C106.284 31 113 37.7157 113 46V79C113 87.2843 106.284 94 98 94H65C56.7157 94 50 87.2843 50 79V46Z" fill="#4CAF50"/>
</g>
<defs>
<filter id="filter0_i_8_64" x="50" y="31" width="63" height="67" filterUnits="userSpaceOnUse" color-interpolation-filters="sRGB">
<feFlood flood-opacity="0" result="BackgroundImageFix"/>
<feBlend mode="normal" in="SourceGraphic" in2="BackgroundImageFix" result="shape"/>
<feColorMatrix in="SourceAlpha" type="matrix" values="0 0 0 0 0 0 0 0 0 0 0 0 0 0 0 0 0 0 127 0" result="hardAlpha"/>
<feOffset dy="4"/>
<feGaussianBlur stdDeviation="2"/>
<feComposite in2="hardAlpha" operator="arithmetic" k2="-1" k3="1"/>
<feColorMatrix type="matrix" values="0 0 0 0 0 0 0 0 0 0 0 0 0 0 0 0 0 0 0.25 0"/>
<feBlend mode="normal" in2="shape" result="effect1_innerShadow_8_64"/>
</filter>
</defs>
</svg>
