<svg width="646" height="247" viewBox="0 0 646 247" fill="none" xmlns="http://www.w3.org/2000/svg">
<path d="M229.796 114.786C223.374 114.786 217.964 117.073 213.565 121.647C209.166 126.222 206.967 131.764 206.967 138.274C206.967 144.784 209.166 150.326 213.565 154.901C217.964 159.388 223.374 161.631 229.796 161.631C236.218 161.631 241.628 159.388 246.027 154.901C250.425 150.326 252.625 144.784 252.625 138.274C252.625 131.764 250.425 126.222 246.027 121.647C241.628 117.073 236.218 114.786 229.796 114.786ZM229.796 171.66C220.119 171.66 212.025 168.493 205.515 162.159C199.005 155.737 195.751 147.775 195.751 138.274C195.751 128.773 199.005 120.856 205.515 114.522C212.025 108.1 220.119 104.889 229.796 104.889C239.473 104.889 247.566 108.1 254.076 114.522C260.586 120.856 263.841 128.773 263.841 138.274C263.841 147.775 260.542 155.693 253.944 162.027C247.346 168.449 239.297 171.66 229.796 171.66ZM286.519 171L266.857 121.911H277.545L292.457 158.992L307.5 121.911H318.189L298.395 171H286.519ZM369.434 150.942H330.902C331.166 154.461 332.794 157.32 335.785 159.52C338.776 161.719 342.251 162.819 346.21 162.819C352.456 162.819 357.118 160.883 360.197 157.012L366.135 163.478C360.857 169.021 353.951 171.792 345.418 171.792C338.38 171.792 332.486 169.46 327.735 164.798C322.985 160.135 320.61 153.977 320.61 146.324C320.61 138.846 323.029 132.776 327.867 128.113C332.706 123.451 338.556 121.12 345.418 121.12C352.28 121.12 357.998 123.187 362.573 127.322C367.147 131.456 369.434 136.955 369.434 143.816V150.942ZM359.142 142.761C359.142 138.802 357.866 135.679 355.315 133.392C352.852 131.104 349.641 129.961 345.682 129.961C341.723 129.961 338.248 131.148 335.257 133.524C332.354 135.899 330.902 138.978 330.902 142.761H359.142ZM388.634 149.887V171H378.342V121.911H388.634V131.676C390.306 128.597 392.549 126.09 395.364 124.155C398.267 122.219 401.302 121.208 404.469 121.12L404.601 131.544H404.074C399.059 131.544 395.232 133.172 392.593 136.427C389.954 139.682 388.634 144.168 388.634 149.887ZM422.699 171H412.407V102.513H422.699V171ZM474.941 171H465.572V164.402C461.437 169.329 455.983 171.792 449.209 171.792C444.019 171.792 439.752 170.34 436.409 167.437C433.154 164.446 431.527 160.575 431.527 155.825C431.527 151.074 433.286 147.467 436.805 145.004C440.324 142.541 445.163 141.309 451.321 141.309H464.78V139.462C464.78 132.952 461.13 129.697 453.828 129.697C449.253 129.697 444.503 131.368 439.576 134.711L434.958 128.245C441.028 123.495 447.802 121.12 455.279 121.12C461.349 121.12 466.144 122.659 469.663 125.738C473.182 128.729 474.941 133.26 474.941 139.33V171ZM464.648 148.567H453.036C445.558 148.567 441.82 150.898 441.82 155.561C441.82 157.936 442.743 159.784 444.591 161.103C446.438 162.335 449.033 162.951 452.376 162.951C455.807 162.951 458.71 162.027 461.086 160.179C463.461 158.244 464.648 155.737 464.648 152.658V148.567ZM537.188 146.192C537.188 153.581 534.901 159.696 530.326 164.534C525.752 169.373 520.297 171.792 513.963 171.792C507.717 171.792 502.131 169.065 497.204 163.61V188.946H486.912V121.911H497.204V130.489C501.339 124.243 506.661 121.12 513.171 121.12C519.945 121.12 525.62 123.451 530.194 128.113C534.857 132.776 537.188 138.802 537.188 146.192ZM511.588 162.555C515.811 162.555 519.374 161.059 522.277 158.068C525.268 154.989 526.763 151.118 526.763 146.456C526.763 141.793 525.268 137.922 522.277 134.843C519.374 131.764 515.855 130.225 511.72 130.225C507.585 130.225 504.11 131.808 501.295 134.975C498.48 138.054 497.072 141.881 497.072 146.456C497.072 151.118 498.48 154.989 501.295 158.068C504.11 161.059 507.541 162.555 511.588 162.555Z" fill="black"/>
<path opacity="0.85" d="M0 91.9114C0 83.6271 6.71573 76.9114 15 76.9114H113.619C121.904 76.9114 128.619 83.6271 128.619 91.9114V190.531C128.619 198.815 121.904 205.531 113.619 205.531H15C6.71573 205.531 0 198.815 0 190.531V91.9114Z" fill="#C8E6C9"/>
<path opacity="0.75" d="M35.8937 62C35.8937 53.7157 42.6095 47 50.8937 47H137.549C145.833 47 152.549 53.7157 152.549 62V148.655C152.549 156.939 145.833 163.655 137.549 163.655H50.8937C42.6095 163.655 35.8937 156.939 35.8937 148.655V62Z" fill="#81C784"/>
<g opacity="0.8" filter="url(#filter0_i_9_125)">
<path d="M74.7788 108.363C74.7788 100.079 81.4945 93.3628 89.7788 93.3628H154C162.284 93.3628 169 100.079 169 108.363V172.584C169 180.868 162.284 187.584 154 187.584H89.7788C81.4945 187.584 74.7788 180.868 74.7788 172.584V108.363Z" fill="#4CAF50"/>
</g>
<defs>
<filter id="filter0_i_9_125" x="74.7788" y="93.3628" width="94.2212" height="98.2213" filterUnits="userSpaceOnUse" color-interpolation-filters="sRGB">
<feFlood flood-opacity="0" result="BackgroundImageFix"/>
<feBlend mode="normal" in="SourceGraphic" in2="BackgroundImageFix" result="shape"/>
<feColorMatrix in="SourceAlpha" type="matrix" values="0 0 0 0 0 0 0 0 0 0 0 0 0 0 0 0 0 0 127 0" result="hardAlpha"/>
<feOffset dy="4"/>
<feGaussianBlur stdDeviation="2"/>
<feComposite in2="hardAlpha" operator="arithmetic" k2="-1" k3="1"/>
<feColorMatrix type="matrix" values="0 0 0 0 0 0 0 0 0 0 0 0 0 0 0 0 0 0 0.25 0"/>
<feBlend mode="normal" in2="shape" result="effect1_innerShadow_9_125"/>
</filter>
</defs>
</svg>
