<svg width="342" height="87" viewBox="0 0 342 87" fill="none" xmlns="http://www.w3.org/2000/svg">
<path d="M34.0454 12.2722C27.6234 12.2722 22.2131 14.5595 17.8145 19.134C13.4158 23.7086 11.2165 29.2509 11.2165 35.7608C11.2165 42.2708 13.4158 47.8131 17.8145 52.3876C22.2131 56.8742 27.6234 59.1175 34.0454 59.1175C40.4674 59.1175 45.8777 56.8742 50.2763 52.3876C54.6749 47.8131 56.8743 42.2708 56.8743 35.7608C56.8743 29.2509 54.6749 23.7086 50.2763 19.134C45.8777 14.5595 40.4674 12.2722 34.0454 12.2722ZM34.0454 69.1464C24.3684 69.1464 16.2749 65.9794 9.76498 59.6454C3.25501 53.2234 2.71797e-05 45.2619 2.71797e-05 35.7608C2.71797e-05 26.2598 3.25501 18.3423 9.76498 12.0083C16.2749 5.58626 24.3684 2.37526 34.0454 2.37526C43.7224 2.37526 51.8158 5.58626 58.3258 12.0083C64.8358 18.3423 68.0908 26.2598 68.0908 35.7608C68.0908 45.2619 64.7918 53.1794 58.1938 59.5134C51.5959 65.9354 43.5464 69.1464 34.0454 69.1464ZM90.7681 68.4866L71.1063 19.3979H81.7949L96.7063 56.4784L111.75 19.3979H122.438L102.644 68.4866H90.7681ZM173.684 48.4289H135.152C135.416 51.9478 137.043 54.8069 140.034 57.0062C143.025 59.2055 146.5 60.3052 150.459 60.3052C156.705 60.3052 161.368 58.3698 164.447 54.499L170.385 60.965C165.107 66.5072 158.201 69.2784 149.667 69.2784C142.63 69.2784 136.735 66.9471 131.985 62.2845C127.234 57.622 124.859 51.4639 124.859 43.8103C124.859 36.3326 127.278 30.2625 132.117 25.6C136.955 20.9375 142.806 18.6062 149.667 18.6062C156.529 18.6062 162.247 20.6735 166.822 24.8083C171.397 28.943 173.684 34.4412 173.684 41.3031V48.4289ZM163.391 40.2474C163.391 36.2887 162.116 33.1656 159.564 30.8784C157.101 28.5911 153.89 27.4474 149.931 27.4474C145.973 27.4474 142.498 28.6351 139.507 31.0103C136.603 33.3856 135.152 36.4646 135.152 40.2474H163.391ZM192.884 47.3732V68.4866H182.591V19.3979H192.884V29.1629C194.555 26.0839 196.799 23.5766 199.614 21.6412C202.517 19.7058 205.552 18.6942 208.719 18.6062L208.851 29.0309H208.323C203.309 29.0309 199.482 30.6584 196.843 33.9134C194.204 37.1684 192.884 41.655 192.884 47.3732ZM226.949 68.4866H216.656V0H226.949V68.4866ZM279.191 68.4866H269.822V61.8887C265.687 66.8151 260.233 69.2784 253.459 69.2784C248.268 69.2784 244.002 67.8268 240.659 64.9237C237.404 61.9327 235.776 58.0619 235.776 53.3113C235.776 48.5608 237.536 44.954 241.055 42.4907C244.574 40.0275 249.412 38.7959 255.57 38.7959H269.03V36.9485C269.03 30.4385 265.379 27.1835 258.077 27.1835C253.503 27.1835 248.752 28.855 243.826 32.1979L239.207 25.732C245.277 20.9814 252.051 18.6062 259.529 18.6062C265.599 18.6062 270.393 20.1457 273.912 23.2247C277.431 26.2158 279.191 30.7464 279.191 36.8165V68.4866ZM268.898 46.0536H257.286C249.808 46.0536 246.069 48.3849 246.069 53.0474C246.069 55.4227 246.993 57.2701 248.84 58.5897C250.688 59.8213 253.283 60.4371 256.626 60.4371C260.057 60.4371 262.96 59.5134 265.335 57.666C267.71 55.7306 268.898 53.2234 268.898 50.1443V46.0536ZM341.437 43.6784C341.437 51.068 339.15 57.1821 334.576 62.0206C330.001 66.8591 324.547 69.2784 318.213 69.2784C311.967 69.2784 306.38 66.5512 301.454 61.0969V86.433H291.161V19.3979H301.454V27.9753C305.589 21.7292 310.911 18.6062 317.421 18.6062C324.195 18.6062 329.869 20.9375 334.444 25.6C339.106 30.2625 341.437 36.2887 341.437 43.6784ZM315.837 60.0412C320.06 60.0412 323.623 58.5457 326.526 55.5546C329.517 52.4756 331.013 48.6048 331.013 43.9423C331.013 39.2797 329.517 35.4089 326.526 32.3299C323.623 29.2509 320.104 27.7113 315.969 27.7113C311.835 27.7113 308.36 29.2948 305.545 32.4619C302.73 35.5409 301.322 39.3677 301.322 43.9423C301.322 48.6048 302.73 52.4756 305.545 55.5546C308.36 58.5457 311.791 60.0412 315.837 60.0412Z" fill="black"/>
</svg>
